<?xml version="1.0" ?><svg data-name="Layer 1" id="Layer_1" viewBox="0 0 128 128" xmlns="http://www.w3.org/2000/svg"><title/><path d="M63.99951.86963A63.13037,63.13037,0,1,0,127.13037,64,63.20164,63.20164,0,0,0,63.99951.86963Zm0,121.35986A58.22949,58.22949,0,1,1,122.22949,64,58.29526,58.29526,0,0,1,63.99951,122.22949Z"/><path d="M87.502,29.72168a5.42572,5.42572,0,0,0-.73291-2.707,5.35906,5.35906,0,0,0-4.68945-2.70752H45.92041A5.35906,5.35906,0,0,0,41.231,27.01465a5.36417,5.36417,0,0,0,.00049,5.41406l16.813,29.12109h-12.124A5.36021,5.36021,0,0,0,41.231,64.25732a5.36327,5.36327,0,0,0,.00049,5.41357L59.311,100.98584a5.3594,5.3594,0,0,0,4.689,2.707l.22168-.00391a5.37892,5.37892,0,0,0,4.46729-2.70312L86.76855,69.67139a5.36417,5.36417,0,0,0,.00049-5.41406,5.36021,5.36021,0,0,0-4.68945-2.70752h-12.124l16.813-29.12061A5.42435,5.42435,0,0,0,87.502,29.72168Zm-5.42236,36.729a.49029.49029,0,0,1,.44531.25684.544.544,0,0,1,.07178.26123.4907.4907,0,0,1-.07275.252L64.44531,98.53516a.51429.51429,0,0,1-.89014.00049L45.47559,67.21973a.49172.49172,0,0,1-.07227-.25146.54588.54588,0,0,1,.07129-.26025.49114.49114,0,0,1,.4458-.25732Zm.44482-36.47363L64.44531,61.29248a.51429.51429,0,0,1-.89014.00049L45.47559,29.97754a.49172.49172,0,0,1-.07227-.25146.53487.53487,0,0,1,.07324-.26221.48746.48746,0,0,1,.44385-.25586H82.07959a.48912.48912,0,0,1,.4458.25928.53133.53133,0,0,1,.07129.25879A.48744.48744,0,0,1,82.52441,29.97705Z"/></svg>